<?xml version="1.0" encoding="utf-8"?>
<!-- Generator: Adobe Illustrator 22.1.0, SVG Export Plug-In . SVG Version: 6.00 Build 0)  -->
<svg version="1.1" xmlns="http://www.w3.org/2000/svg" xmlns:xlink="http://www.w3.org/1999/xlink" x="0px" y="0px"
	 viewBox="0 0 1366 768" style="enable-background:new 0 0 1366 768;" xml:space="preserve">
<style type="text/css">
	.st0{fill:#D4145A;}
</style>
<g id="Layer_1">
</g>
<g id="Layer_2">
	<path class="st0" d="M3.1,11.8c2.3,3.4,4.6,4.2,5.7,8.4s-2.3,7.6-2.3,10.1c0,7.6,10.3,5.9,10.3,0.8c0-7.8-3.4-8.4-1.1-12.6
		c3.1-5.6,8-0.8,8,3.4s1.1,5,3.4,5s2.3-5,6.9-5s3.4,2.5,3.4,5s-4.6,8.3-4.6,11.8c0,9.2,13.7,7.6,13.8,0c0-4.8-5.7-5-5.7-8.4
		c0-5-2.4-9.7,2.3-9.2c9.2,0.8,1.1,10.1,6.9,10.1s6.9-4.2,5.7-7.6s3.4-5,4.6-1.7S57,32,57,37s6.9,6.7,6.9,0s-1.1-15.1,2.3-15.1
		s2.3,2.5,2.3,6.7s5.7,6.7,5.7,0s-5.7-9.2-2.3-13.5c3.4-4.2,13.8-6.7,13.8,0s-2.3,7.6-2.3,10.9s9.2,5,9.2,0.8s-5.7-9.2-1.1-11.8
		c4.6-2.5,8,0,9.2,5S96,29.4,96,33.6s13.8,12.6,13.8,1.7S99.4,21,109.7,16s16.5-2.5,14.9,2.5c-3.4,10.9,20.2,13.4,13.8,1.7
		c-2.3-4.2-5.7-10.9,0-10.1c5.7,0.8,6.9,5.9,6.9,9.2s5.7,7.6,5.7-3.4s0-16,0-16H3.1C3.1,0,0.8,8.4,3.1,11.8z"/>
</g>
</svg>
